<svg width="225" height="207" viewBox="0 0 225 207" fill="none" xmlns="http://www.w3.org/2000/svg">
<path d="M47.3045 190.374L32.7977 40.6804H192.202L177.68 190.351L112.402 207L47.3045 190.374Z" fill="#E44D26"/>
<path d="M112.5 194.274L165.248 180.82L177.658 52.92H112.5V194.274Z" fill="#F16529"/>
<path d="M112.5 108.439H86.0932L84.2695 89.6391H112.5V71.2795H112.431H62.4603L62.938 76.2051L67.8428 126.798H112.5V108.439Z" fill="#EBEBEB"/>
<path d="M112.5 156.12L112.413 156.142L90.1877 150.621L88.7669 135.978H77.9674H68.7344L71.5302 164.805L112.408 175.245L112.5 175.222V156.12Z" fill="#EBEBEB"/>
<path d="M47.6288 0H57.77V9.21797H67.0469V0H77.1886V27.9143H67.0473V18.5669H57.7705V27.9143H47.6292V0H47.6288Z" fill="#DCDCDC"/>
<path d="M90.5247 9.25678H81.5968V0H109.599V9.25678H100.667V27.9143H90.5252V9.25678H90.5247Z" fill="#DCDCDC"/>
<path d="M114.043 0H124.617L131.122 9.80824L137.62 0H148.199V27.9143H138.099V14.0784L131.122 24.0035H130.948L123.966 14.0784V27.9143H114.043V0Z" fill="#DCDCDC"/>
<path d="M153.246 0H163.39V18.6874H177.652V27.9143H153.246V0Z" fill="#DCDCDC"/>
<path d="M112.431 108.439V126.798H137.004L134.688 150.609L112.431 156.136V175.236L153.341 164.805L153.642 161.703L158.331 113.369L158.818 108.439H153.44H112.431Z" fill="white"/>
<path d="M112.431 71.2795V82.6823V89.5942V89.6391H160.57H160.634L161.034 85.5124L161.943 76.2051L162.421 71.2795H112.431Z" fill="white"/>
</svg>
