<svg width="161" height="156" viewBox="0 0 161 156" fill="none" xmlns="http://www.w3.org/2000/svg">
<path d="M0 0H161V156H0V0Z" fill="#F7DF1E"/>
<path d="M42.3328 130.365L54.6536 123.14C57.0305 127.224 59.1928 130.679 64.3793 130.679C69.3509 130.679 72.4853 128.794 72.4853 121.465V71.6191H87.6152V121.672C87.6152 136.856 78.4295 143.767 65.0279 143.767C52.9245 143.767 45.8988 137.694 42.3325 130.364" fill="#1C222A"/>
<path d="M95.8333 128.794L108.153 121.883C111.396 127.014 115.611 130.784 123.067 130.784C129.336 130.784 133.334 127.747 133.334 123.558C133.334 118.532 129.227 116.751 122.31 113.82L118.529 112.248C107.613 107.746 100.372 102.092 100.372 90.1539C100.372 79.1586 109.017 70.7809 122.527 70.7809C132.146 70.7809 139.062 74.0274 144.033 82.5096L132.253 89.8394C129.659 85.3369 126.85 83.557 122.527 83.557C118.096 83.557 115.286 86.2796 115.286 89.8394C115.286 94.2376 118.096 96.0182 124.58 98.741L128.362 100.312C141.223 105.653 148.464 111.097 148.464 123.349C148.464 136.544 137.765 143.769 123.392 143.769C109.342 143.769 100.264 137.276 95.8336 128.794" fill="#1C222A"/>
</svg>
